<svg xmlns="http://www.w3.org/2000/svg" width="40" height="40" viewBox="0 0 40 40">
  <defs>
    <linearGradient id="case" x1="4" y1="11" x2="4" y2="36" gradientUnits="userSpaceOnUse">
      <stop offset="0" stop-color="#14A8E5"/>
      <stop offset="1" stop-color="#00A09A"/>
    </linearGradient>
    <linearGradient id="handle" x1="12" y1="4" x2="28" y2="12" gradientUnits="userSpaceOnUse">
      <stop offset="0" stop-color="#08A9E7"/>
      <stop offset="1" stop-color="#0060B6"/>
    </linearGradient>
    <clipPath id="case-clip">
      <path d="M7 11h26a4 4 0 0 1 4 4v17a4 4 0 0 1-4 4H17l-7 5v-5H7a4 4 0 0 1-4-4V15a4 4 0 0 1 4-4Z"/>
    </clipPath>
  </defs>
  <path fill="url(#handle)" d="M14 12V8a4 4 0 0 1 4-4h7a4 4 0 0 1 4 4v4h-4V8.8c0-.6-.5-1.1-1.1-1.1h-4.8c-.6 0-1.1.5-1.1 1.1V12h-4Z"/>
  <path fill="#0053A7" d="M9 10h4v3H9zM31 10h4v3h-4z"/>
  <path fill="url(#case)" d="M7 11h26a4 4 0 0 1 4 4v17a4 4 0 0 1-4 4H17l-7 5v-5H7a4 4 0 0 1-4-4V15a4 4 0 0 1 4-4Z"/>
  <g clip-path="url(#case-clip)">
    <path fill="#8FC928" d="M21 36h16V23L21 36Z"/>
    <path fill="#0060B6" d="M24 14v17l7-6V17l-7-3Z"/>
    <path fill="#fff" d="M11 17h4.1l9.8 7.7V17H29v15h-4.1l-9.8-7.7V32H11V17Z"/>
    <path fill="#fff" d="M33.8 27.3a3.5 3.5 0 0 0-4.4 4.4l-4.7 4.7a1.7 1.7 0 1 0 2.4 2.4l4.7-4.7a3.5 3.5 0 0 0 4.4-4.4l-2.4 2.4-2.4-2.4 2.4-2.4Z"/>
  </g>
</svg>
